<svg xmlns="http://www.w3.org/2000/svg" viewBox="0 0 569.93 438.17"><defs><style>.cls-1{fill:#353535;}.cls-2{fill:#039dd7;}.cls-3{fill:#fff;}</style></defs><g id="Layer_2" data-name="Layer 2"><path class="cls-1" d="M295.83,166c-5.23,0-9.47,3.31-9.47,7.39v42.14c.47-.92.86-1.86,1.36-2.69a23.93,23.93,0,0,1,4.12-5c3.19-3,6.16-6.27,9.8-9,4.18-3.13,7.89-6.24,13.23-7.95,4.82-1.55,8.75-3.16,13.33-4.37a85.53,85.53,0,0,1,17.51-3.06,100.71,100.71,0,0,1,14.32.69,66.3,66.3,0,0,1,14.55,3.09c5.45,1.85,11,3.34,16.12,5.57a64.59,64.59,0,0,1,9.56,5.81s-9.62,4-12.73,5.13c-.24.8-21.51,8.51-30.66,14.24-3.94,2.46-9.77,9-9.56,14.68-.11,1.15,2.08,4.72,1.83,5.25a45.17,45.17,0,0,0,7.44,4.51c6,1.93,13.33,2.47,16.75,1.7,4.44-1,37.2-16.66,39.46-17.74,2.77-1.33,8.55-3.63,6.58-1.75,0,.2,0-.2,0,0-.3,1.86.34,13.69-.31,15.41.36.42-2.23,19-9.43,26.14-3.29,3.27-7.29,7.6-10.92,10.69s-8.07,4.52-11.84,7.43c-2.64,2.05-6.19,3.38-9.17,5.08H507.78c5.23,0,9.47-3.31,9.47-7.4V173.35c0-4.08-4.24-7.39-9.47-7.39Z"/><path class="cls-1" d="M511.3,143.37h-219c-18.54,0-33.57,11.74-33.57,26.22v77.49a8.33,8.33,0,0,1,2.85-.59c3.73-.14,15-4.69,19.11-8.73,3.1-7.26.81-27.66,1.14-28.64,4-12.1-3-45.25,3.2-45.34,15.45-.24,233.49-4.68,236.36,1.37,4.66,9.81,0,109.32-.51,123-.27,7-37.7,6.69-55.79,6.45-17.76-.23-157.67-.88-166.89-.56-5.94.21-26.47,6.27-30.55,8.93l-.08,0c6.13,5.23,14.93,8.54,24.73,8.54h88.08v15.33l-40.8,2.42-15.5,6.45L385,341h31l65.08-7.66L463,329.32l-40.28-1.19-.52-16.54H511.3c18.54,0,33.57-11.74,33.57-26.22V169.59C544.87,155.11,529.84,143.37,511.3,143.37Z"/><path class="cls-2" d="M70.46,332.16l39.25-14.93,30.48,11.3v25.82L99.38,376.13c27.38,12.1,44.42,4.44,44.42,4.44C174.8,366,176.17,356,176.17,356c4.25-12.38,4.31-18.15,4.31-18.15a13.46,13.46,0,0,1,12.91-11.7L304.44,277.3c16-7.67,24.8,0,24.8,0,26.68,6.59,41.32,2,41.32,2,31-11.69,37.7-33.88,37.7-33.88,0-9.68-14.46-1-14.46-1l-21.18,11.52-21.17-3.77c-20.15-9.68-22-23.4-22-23.4L336.3,216l42-18.15c-40.29-12.91-60.95,3.22-60.95,3.22-26.86,22.6-21.18,38.33-21.18,38.33L160.85,301.9c-36.16-14.11-57.33-4.84-57.33-4.84C73,308.76,70.46,332.16,70.46,332.16Z"/><path class="cls-2" d="M171.7,213.16l-19.63,15.33,14.46,7.26c5.17,10.49-5.68,26.62-5.68,26.62l8.78,13.27L181,258.34c11.37-16.14,0-21.79,0-21.79l10.33-8.06Z"/><path class="cls-2" d="M175.83,286.58l39.25-85.53,19.63,8.07c8.78,6.86,0,9.68,0,9.68l-11.36,12.11c-5.17,8.06,11.36,4.84,11.36,4.84,10.33,4.84-12.39,18.55-12.39,18.55Z"/><path class="cls-2" d="M104.55,199.44l-12.4,9.68c-6.2,12.1,6.2,12.1,6.2,12.1l11.36,8.88c6.72,5.24,0,12.1,0,12.1L99.38,254.3l70.25,33.89Z"/><ellipse class="cls-2" cx="160.85" cy="143.37" rx="84.19" ry="65.75"/><g id="curve_shape" data-name="curve shape"><path class="cls-2" d="M71.77,302.9c11.6-11.08,17.34-13.55,18.85-14.73C63.34,258.4,62.8,253.5,51,221.36c-3.39-9.23-9.22-55-9.11-57.42-.69-45.18,5.51-52.17,22.18-79.6C80,58.07,131.86,38.43,135.54,37c5.62-3.71,46.59-21.77,80.58-22.59,44.63-1.08,74.81-.4,116.39,13.44,10,3.33,49.58,15.06,77.12,27.78C296.06-12.24,152.09-19.89,67.32,43.08c-86.11,64-90.65,183.17-7.62,276.78C60.2,318.92,67.35,307.12,71.77,302.9Z"/><path class="cls-2" d="M105.69,362.05c7.24-3,10.06-4.25,15.73-8.71,4.71-3.7,8.38-7.78,13.52-11-1.95-1.75-13-13.35-16.47-17.05-.08,0,4.37-2.57,4.28-2.53-5.46,2.32-24,9.94-25.41,10.34-6.74,3.17-12.75,7.78-15.64,9.05q6.19,5.67,12.86,11.16Q100,357.79,105.69,362.05Z"/><path class="cls-2" d="M513.12,364c-12.4,9.68-27.86,23.4-56.82,32.92-48.94,16.1-88.2,19.13-90.39,18.71-41,2.2-128.18-21.41-185.47-49.93a248.82,248.82,0,0,1-38.07,20.46c115.47,66.24,266.93,69.81,351.4,7.06,28.39-21.08,46.92-47.75,56.05-77.34C533.05,351.84,521.24,357.69,513.12,364Z"/></g><rect class="cls-2" x="460.43" y="156.68" width="21.69" height="18.96"/><rect class="cls-2" x="460.43" y="181.29" width="21.69" height="18.96"/><rect class="cls-2" x="488.84" y="196.21" width="21.69" height="18.96"/><rect class="cls-2" x="514.15" y="196.21" width="21.69" height="18.96"/><rect class="cls-2" x="500.72" y="218.57" width="21.69" height="18.96"/><rect class="cls-2" x="460.43" y="205.9" width="21.69" height="18.96"/><rect class="cls-2" x="432.54" y="199.64" width="21.69" height="18.96"/><rect class="cls-2" x="443.39" y="184.52" width="10.85" height="8.47"/><rect class="cls-2" x="488.84" y="156.68" width="42.1" height="32.88"/><rect class="cls-2" x="507.95" y="132.07" width="26.69" height="18.68"/><rect class="cls-2" x="541.53" y="144.98" width="28.41" height="28.14"/><path d="M400,345.39h6.2l-.18.12,0,.06H508.84c.42,0,.85,0,1.27,0a6,6,0,0,1,2.6.74.61.61,0,0,1,.34.62V396a1.51,1.51,0,0,1,0,.3.37.37,0,0,1-.08.18,1.06,1.06,0,0,1-.73.29h-16a.47.47,0,0,1-.47-.27c-.39-.67-.81-1.31-1.19-2a.27.27,0,0,0-.34-.15c-.44.08-.88.15-1.32.2a.42.42,0,0,1-.31-.08c-.36-.63-.7-1.26-1.07-1.92l.26,0c1.94,0,3.87,0,5.81,0,.25,0,.33-.07.33-.32q0-2.44,0-4.89c0-.29-.1-.36-.37-.36-3.06,0-6.12,0-9.18,0a.62.62,0,0,1-.61-.33c-.17-.27-.36-.52-.54-.78s-.29-.41-.48-.67h4.5v-5.52H482.1a.69.69,0,0,1-.41-.15c-.73-.58-1.45-1.19-2.17-1.79a1.47,1.47,0,0,1-.15-.17h3.36c.31,0,.41-.08.4-.39,0-1.58,0-3.16,0-4.74,0-.44,0-.44-.44-.44h-9.76c-.48,0-.48,0-.53.49,0,0,0,.05,0,.1l-3.46-2.25,0-.07h7.5V370c0-1.61,0-3.22,0-4.83,0-.32-.1-.37-.4-.37h-9.81l-.39,0v3.7l-4.11-2.29a.34.34,0,0,1-.13-.27c0-.37,0-.75,0-1.14l-.36,0H459a1.77,1.77,0,0,1-.56-.09,13.53,13.53,0,0,0-8.71,0c-.66.22-.67.29-.21.8,0,0,0,0,0,0-.65-.14-1.28-.31-1.92-.43a10.89,10.89,0,0,0-1.81-.33c-.83,0-1.65-.18-2.48-.24-1.37-.11-2.75-.22-4.12-.27a32.1,32.1,0,0,0-5.37.11,7.16,7.16,0,0,0-1.29.32c-.33.11-.35.35-.05.51a12,12,0,0,0,1.52.66c.72.24,1.45.43,2.17.63v1l-4.24-.52v-2.17H421.31v1.63l-.33,0c-.56.09-1.13.14-1.67.28a2.9,2.9,0,0,0-1.07.53c-.49.42-.4.84.14,1.11a5.78,5.78,0,0,0,.72.31l2.23.71v.93h3.86a4.49,4.49,0,0,1,.73.06l6.86,1.27,1.83.32a.89.89,0,0,1-.39.06h-6a1.22,1.22,0,0,0-.39.14l0,.1c-1-.14-1.93-.31-2.91-.42-2.21-.23-4.43-.47-6.64-.65a8.08,8.08,0,0,0-3.13.3c-.34.11-.62.4-1,.48a4.63,4.63,0,0,1-1.12,0c0,.16,0,.26,0,.36,0,1.62,0,3.24,0,4.86,0,.29.08.37.38.37h10.23v-1.46l4.24.68v.37c0,.43,0,.43.42.43H433a2,2,0,0,1,.88.2c.63.33,1.23.7,1.84,1.08.38.24.74.52,1.11.78l0,.07h-.62v4.41l-4.26-1.71v-2.69H421.34v5.52H426a1.52,1.52,0,0,1,.47.1c1.14.46,2.27.94,3.41,1.41l.39.18c-.67.06-1.32.06-2,.06-.4,0-.4,0-.4.39v4.77c0,.39,0,.39.4.39h10l.23,0v-1.88l4.24,1v.52c0,.42,0,.42.43.42a35.71,35.71,0,0,1,7.66.41,6.44,6.44,0,0,1,1.7.39c1.84.94,3.71,1.85,5.57,2.77.4.21.82.4,1.23.59l0,0H327.68l.21-.11,5.45-2.66a6.39,6.39,0,0,1,2.33-.94c.31,0,.61-.08.91-.12a19.46,19.46,0,0,1,2.61-.35c3.3,0,6.61,0,9.91,0,.23,0,.3-.06.3-.29,0-.57,0-1.13,0-1.7a.35.35,0,0,1,.14-.28c1-.49,1.93-1,2.9-1.44.37-.18.76-.34,1.2-.53v.39c0,1.1,0,2.21,0,3.31,0,.6-.07.53.54.53h69a2.54,2.54,0,0,1,.39,0c.28,0,.38-.06.38-.34q0-2.43,0-4.86c0-.29-.1-.36-.38-.36H356.81l0-.07,5.06-2.1c-.1.4.1.42.37.42h9.94c.27,0,.34-.07.34-.34q0-2.45,0-4.89c0-.25-.08-.32-.33-.32h-10c-.28,0-.35.09-.35.35,0,.53,0,1.07,0,1.56l-4.16.31a2.85,2.85,0,0,1,0-.31v-1.49c0-.41,0-.41-.4-.41h-6.72l-.18,0,0-.08c.88-.56,1.77-1.13,2.66-1.68a2.38,2.38,0,0,1,1.33-.34c.71,0,1.42,0,2.13,0h7.45c.26,0,.36-.06.34-.34s0-.62,0-.94.07-.36.34-.41c1.05-.19,2.1-.4,3.15-.61l.78-.14v2.42h10.28c.25,0,.3-.09.3-.32,0-1.65,0-3.3,0-4.95,0-.09,0-.17,0-.3H373.9a2.39,2.39,0,0,1-1.49-.33,4.08,4.08,0,0,0-2-.47,37.18,37.18,0,0,0-6.75.44,30.13,30.13,0,0,1-4.45.37c-1.71,0-3.42,0-5.13,0h-.43c0,.33,0,.62,0,.91s-.08.34-.32.38l-2.56.5-1.37.25c0-.51,0-1,0-1.46,0-.06.11-.15.19-.17l1.19-.2,8.94-1.56a13.89,13.89,0,0,1,2.41-.37c3.36,0,6.71,0,10.06,0,.22,0,.31-.05.31-.29q0-2.49,0-5c0-.23-.09-.29-.31-.29H362.13c-.25,0-.31.1-.31.33s0,.69,0,1-.07.31-.31.32c-.75,0-1.49.09-2.24.14l-1.63.13c0-.57,0-1.1,0-1.64,0-.24-.08-.32-.32-.31h-2.22a1.67,1.67,0,0,1-.43-.1,3.77,3.77,0,0,0-.72-.23,14.39,14.39,0,0,0-2.17-.23c-2.05,0-4.11,0-6.16.14-1.32.06-2.64.29-4,.36s-2.49.05-3.74.06a1.93,1.93,0,0,1-.62-.11,13.53,13.53,0,0,0-9.16.19.42.42,0,0,1-.22,0,2.56,2.56,0,0,0-.34-.1H317.53c-.17,0-.28,0-.28.25v5.07c0,.19.08.25.25.24h.65l-.27.19c-.68.44-1.38.87-2.05,1.32a1.18,1.18,0,0,1-.7.21h-5.75c-.3,0-.4.07-.4.39,0,1.3,0,2.61,0,3.92a.52.52,0,0,1-.15.38q-1.74,1.44-3.51,2.86a.65.65,0,0,1-.38.13c-.73,0-1.46,0-2.18,0-.3,0-.36.09-.35.36,0,.68,0,1.35,0,2a1.12,1.12,0,0,1-.26.74c-1,1.29-2,2.58-3,3.9a.59.59,0,0,1-.54.27c-1.37,0-2.73,0-4.1,0-.28,0-.39.06-.39.37,0,1.62,0,3.24,0,4.86,0,.27.1.35.35.33h1c-.34.63-.67,1.19-1,1.78a.41.41,0,0,1-.52.24l-1.14-.18a.35.35,0,0,0-.41.21c-.39.65-.8,1.29-1.18,1.95a.4.4,0,0,1-.41.22h-9.15a.93.93,0,0,1-.33,0,1.65,1.65,0,0,1-1.07-1.53V347.88c0-.13,0-.26,0-.39a1.1,1.1,0,0,1,.06-.26,2.49,2.49,0,0,1,1.49-1.21,7.37,7.37,0,0,1,2.83-.45H399.2a3.09,3.09,0,0,0,.43,0A3.65,3.65,0,0,0,400,345.39Zm87.6,32.27h18.29c.42,0,.43,0,.43-.37V365.15c0-.27-.08-.36-.36-.36l-9.33,0-15.56,0-.36,0v5.32h.48c2,0,4,0,6,0,.3,0,.4.07.39.39,0,2.24,0,4.49,0,6.74Zm-188.18-.07h5c.24,0,.34,0,.34-.32,0-1.64,0-3.28,0-4.91,0-.25-.07-.34-.33-.34h-10c-.28,0-.38.07-.38.37q0,2.42,0,4.83c0,.29.08.37.37.37Zm38-27.82h-5c-.28,0-.36.08-.36.36,0,1.63,0,3.26,0,4.89,0,.25.06.33.32.33q5,0,10,0c.27,0,.38-.07.38-.36,0-1.62,0-3.24,0-4.86,0-.28-.09-.36-.37-.36Zm14.83,0h-5c-.25,0-.33.08-.33.33q0,2.44,0,4.89c0,.28.09.36.37.36q5,0,9.93,0c.31,0,.38-.11.38-.39q0-2.43,0-4.86c0-.28-.1-.33-.35-.33Zm14.87,5.57h5c.25,0,.33-.07.33-.33,0-1.64,0-3.29,0-4.94,0-.25-.09-.31-.32-.31h-10c-.26,0-.34.1-.34.34q0,2.44,0,4.89c0,.25.08.35.35.35C363.84,355.33,365.52,355.34,367.19,355.34Zm110.55,1.71h-5c-.28,0-.36.08-.35.36q0,2.43,0,4.86c0,.27.08.34.34.34H482.8c.24,0,.33-.08.33-.33q0-2.44,0-4.89c0-.27-.09-.34-.35-.34Zm-160.48-7.26v5.53H327.9v-5.53Zm91.53,22.26H398.18v5.51h10.61Zm-6.58-22.25H391.6v5.52h10.61Zm90.44,7.25h-5c-.26,0-.36.05-.36.35,0,1.61,0,3.21,0,4.82,0,.32.1.39.4.39h9.87c.31,0,.4-.09.4-.39q0-2.42,0-4.83c0-.27-.08-.34-.34-.34Zm-193.18,0h-5c-.26,0-.35.06-.35.34,0,1.62,0,3.23,0,4.85,0,.31.1.37.38.37h9.91c.28,0,.39-.07.39-.38,0-1.6,0-3.21,0-4.82,0-.29-.09-.36-.37-.36Zm14.86,0h-5c-.27,0-.36.07-.36.35q0,2.42,0,4.83c0,.29.07.38.37.38h9.94c.27,0,.37-.07.37-.36,0-1.62,0-3.23,0-4.85,0-.26-.07-.35-.34-.35Zm14.92,0h-5c-.26,0-.36.07-.35.34q0,2.44,0,4.89c0,.25.08.33.33.33h10c.26,0,.35-.07.35-.34q0-2.43,0-4.86c0-.27-.07-.36-.36-.36Zm14.83,5.56h5c.25,0,.34-.06.34-.32q0-2.48,0-5c0-.2,0-.29-.27-.29H339c-.2,0-.29.07-.29.28q0,2.46,0,4.92c0,.26.1.36.38.36Zm-45.94-7.28V349.8H287.6v5.53Zm4.3-5.54v5.53l.22,0h10c.27,0,.32-.09.32-.33q0-2.46,0-4.92c0-.28-.1-.33-.35-.33H302.44Zm74.32,5.55H387c.3,0,.37-.1.37-.38,0-1.6,0-3.2,0-4.8,0-.39,0-.4-.39-.4H376.76Zm40.28,0V349.8H406.49v5.52Zm4.3-5.53v5.53h10.54v-5.53Zm84.79,0H495.56c0,1.76,0,3.49,0,5.22,0,.26.08.32.33.32h10.24Zm-25.38,0v5.52h10.53V349.8Zm-14.9,0v5.53h10.54v-5.53ZM451,355.32h10.54V349.8H451Zm-57.12,22.25V372H383.34v5.53Zm52.84-27.77H436.17v5.51h10.56Zm-38,12.79v-5.51H398.18v5.51Zm-6.54,7.7V370c0-1.61,0-3.22,0-4.83,0-.29-.07-.38-.37-.37H392l-.36,0v5.52Zm0,9.44H391.6v5.49h10.62Zm65.93-22.66-.17,0H457.86c-.25,0-.3.09-.3.32,0,1.61,0,3.22,0,4.82,0,.41,0,.42.42.42h10.17Zm38,22.65-.11,0H495.82c-.26,0-.26.13-.26.32v4.92c0,.09,0,.19,0,.29h10.57Zm-129.4,5.51.11,0h10.2c.25,0,.27-.11.27-.31,0-1.65,0-3.29,0-4.94,0-.26-.1-.3-.32-.3H376.75Zm46.87-28.15H413.05v5.12c0,.4,0,.41.39.41h10.18Zm-17.15,13.2H417v-5.51l-.31,0h-9.91c-.28,0-.35.07-.35.35,0,1.62,0,3.24,0,4.86Zm21.44-13.21v5.51h10.54v-5.51Zm25.39,0H443.05c-.28,0-.33.1-.33.35,0,1.62,0,3.24,0,4.86,0,.29.1.35.37.35H453c.28,0,.37-.07.36-.35,0-1.62,0-3.24,0-4.86C453.32,357.3,453.31,357.2,453.3,357.07Zm-89.09,5.54c0-.15,0-.24,0-.33,0-1.63,0-3.26,0-4.89,0-.27-.07-.34-.34-.34H353.64v5.14c0,.39,0,.4.39.4h10.18Zm4.29-5.54v5.51H379v-5.51Zm25.39,0H383.34v5.5h10.55Zm-106.3,28.15h10.55v-5.51H287.59Zm10.56-20.46-.28,0h-10c-.24,0-.31.07-.31.31,0,1.65,0,3.3,0,4.95,0,.08,0,.17,0,.27h10.55Zm9.55,5.54h4.95c.27,0,.37-.06.36-.35,0-1.61,0-3.23,0-4.85,0-.27-.06-.37-.35-.36h-9.91c-.25,0-.35.05-.35.33,0,1.63,0,3.26,0,4.89,0,.26.06.35.33.34Zm109.35,9.42H406.5v5.5h10.55Zm-40.3-9.44h10.31c.25,0,.27-.11.27-.31,0-1.64,0-3.28,0-4.92,0-.28-.1-.33-.35-.33h-9.91c-.29,0-.35.09-.35.36,0,1.62,0,3.24,0,4.86C376.74,370.06,376.75,370.16,376.75,370.29Z"/><path class="cls-3" d="M400,345.39a3.65,3.65,0,0,1-.41.18,3.09,3.09,0,0,1-.43,0H284.67a7.37,7.37,0,0,0-2.83.45,2.49,2.49,0,0,0-1.49,1.21,1.1,1.1,0,0,0-.06.26c0,.13,0,.26,0,.39V395.2a1.65,1.65,0,0,0,1.07,1.53.93.93,0,0,0,.33,0h9.15a.4.4,0,0,0,.41-.22c.38-.66.79-1.3,1.18-1.95a.35.35,0,0,1,.41-.21l1.14.18a.41.41,0,0,0,.52-.24c.3-.59.63-1.15,1-1.78h-1c-.25,0-.35-.06-.35-.33,0-1.62,0-3.24,0-4.86,0-.31.11-.37.39-.37,1.37,0,2.73,0,4.1,0a.59.59,0,0,0,.54-.27c1-1.32,2-2.61,3-3.9a1.12,1.12,0,0,0,.26-.74c0-.68,0-1.35,0-2,0-.27,0-.37.35-.36.72,0,1.45,0,2.18,0a.65.65,0,0,0,.38-.13q1.77-1.43,3.51-2.86a.52.52,0,0,0,.15-.38c0-1.31,0-2.62,0-3.92,0-.32.1-.4.4-.39h5.75a1.18,1.18,0,0,0,.7-.21c.67-.45,1.37-.88,2.05-1.32l.27-.19h-.65c-.17,0-.25-.05-.25-.24V365c0-.22.11-.25.28-.25H327.6a2.56,2.56,0,0,1,.34.1.42.42,0,0,0,.22,0,13.53,13.53,0,0,1,9.16-.19,1.93,1.93,0,0,0,.62.11c1.25,0,2.5,0,3.74-.06s2.64-.3,4-.36c2.05-.1,4.11-.13,6.16-.14a14.39,14.39,0,0,1,2.17.23,3.77,3.77,0,0,1,.72.23,1.67,1.67,0,0,0,.43.1h2.22c.24,0,.32.07.32.31,0,.54,0,1.07,0,1.64l1.63-.13c.75-.05,1.49-.11,2.24-.14.24,0,.32-.08.31-.32s0-.69,0-1,.06-.33.31-.33h10.06c.22,0,.31.06.31.29q0,2.49,0,5c0,.24-.09.29-.31.29-3.35,0-6.7,0-10.06,0a13.89,13.89,0,0,0-2.41.37l-8.94,1.56-1.19.2c-.08,0-.19.11-.19.17,0,.48,0,.95,0,1.46l1.37-.25,2.56-.5c.24,0,.33-.14.32-.38s0-.58,0-.91h.43c1.71,0,3.42,0,5.13,0a30.13,30.13,0,0,0,4.45-.37,37.18,37.18,0,0,1,6.75-.44,4.08,4.08,0,0,1,2,.47,2.39,2.39,0,0,0,1.49.33h5.15c0,.13,0,.21,0,.3,0,1.65,0,3.3,0,4.95,0,.23-.05.32-.3.32H368.49v-2.42l-.78.14c-1,.21-2.1.42-3.15.61-.27.05-.36.15-.34.41s0,.63,0,.94-.08.34-.34.34h-7.45c-.71,0-1.42,0-2.13,0a2.38,2.38,0,0,0-1.33.34c-.89.55-1.78,1.12-2.66,1.68l0,.08.18,0h6.72c.4,0,.4,0,.4.41v1.49a2.85,2.85,0,0,0,0,.31l4.16-.31c0-.49,0-1,0-1.56,0-.26.07-.35.35-.35h10c.25,0,.33.07.33.32q0,2.44,0,4.89c0,.27-.07.35-.34.34h-9.94c-.27,0-.47,0-.37-.42l-5.06,2.1,0,.07H423.6c.28,0,.38.07.38.36q0,2.43,0,4.86c0,.28-.1.38-.38.34a2.54,2.54,0,0,0-.39,0h-69c-.61,0-.54.07-.54-.53,0-1.1,0-2.21,0-3.31v-.39c-.44.19-.83.35-1.2.53-1,.47-1.94.95-2.9,1.44a.35.35,0,0,0-.14.28c0,.57,0,1.13,0,1.7,0,.23-.07.29-.3.29-3.3,0-6.61,0-9.91,0a19.46,19.46,0,0,0-2.61.35c-.3,0-.6.1-.91.12a6.39,6.39,0,0,0-2.33.94l-5.45,2.66-.21.11H459.3l0,0c-.41-.19-.83-.38-1.23-.59-1.86-.92-3.73-1.83-5.57-2.77a6.44,6.44,0,0,0-1.7-.39,35.71,35.71,0,0,0-7.66-.41c-.43,0-.43,0-.43-.42v-.52l-4.24-1v1.88l-.23,0h-10c-.4,0-.4,0-.4-.39v-4.77c0-.39,0-.39.4-.39.65,0,1.3,0,2-.06l-.39-.18c-1.14-.47-2.27-.95-3.41-1.41a1.52,1.52,0,0,0-.47-.1h-4.65v-5.52h10.55v2.69l4.26,1.71v-4.41h.62l0-.07c-.37-.26-.73-.54-1.11-.78-.61-.38-1.21-.75-1.84-1.08a2,2,0,0,0-.88-.2h-4.65c-.42,0-.42,0-.42-.43v-.37l-4.24-.68v1.46H413.42c-.3,0-.38-.08-.38-.37,0-1.62,0-3.24,0-4.86,0-.1,0-.2,0-.36a4.63,4.63,0,0,0,1.12,0c.34-.08.62-.37,1-.48a8.08,8.08,0,0,1,3.13-.3c2.21.18,4.43.42,6.64.65,1,.11,1.94.28,2.91.42l0-.1a1.22,1.22,0,0,1,.39-.14h6a.89.89,0,0,0,.39-.06l-1.83-.32-6.86-1.27a4.49,4.49,0,0,0-.73-.06h-3.86v-.93l-2.23-.71a5.78,5.78,0,0,1-.72-.31c-.54-.27-.63-.69-.14-1.11a2.9,2.9,0,0,1,1.07-.53c.54-.14,1.11-.19,1.67-.28l.33,0v-1.63h10.58v2.17l4.24.52v-1c-.72-.2-1.45-.39-2.17-.63a12,12,0,0,1-1.52-.66c-.3-.16-.28-.4.05-.51a7.16,7.16,0,0,1,1.29-.32,32.1,32.1,0,0,1,5.37-.11c1.37.05,2.75.16,4.12.27.83.06,1.65.22,2.48.24a10.89,10.89,0,0,1,1.81.33c.64.12,1.27.29,1.92.43,0,0,0,0,0,0-.46-.51-.45-.58.21-.8a13.53,13.53,0,0,1,8.71,0,1.77,1.77,0,0,0,.56.09h2.25l.36,0c0,.39,0,.77,0,1.14a.34.34,0,0,0,.13.27l4.11,2.29v-3.7l.39,0H476c.3,0,.41.05.4.37,0,1.61,0,3.22,0,4.83v.34h-7.5l0,.07,3.46,2.25c0-.05,0-.07,0-.1.05-.49.05-.49.53-.49h9.76c.44,0,.44,0,.44.44,0,1.58,0,3.16,0,4.74,0,.31-.09.4-.4.39h-3.36a1.47,1.47,0,0,0,.15.17c.72.6,1.44,1.21,2.17,1.79a.69.69,0,0,0,.41.15h9.19v5.52h-4.5c.19.26.34.46.48.67s.37.51.54.78a.62.62,0,0,0,.61.33c3.06,0,6.12,0,9.18,0,.27,0,.37.07.37.36q0,2.44,0,4.89c0,.25-.08.32-.33.32-1.94,0-3.87,0-5.81,0l-.26,0c.37.66.71,1.29,1.07,1.92a.42.42,0,0,0,.31.08c.44-.05.88-.12,1.32-.2a.27.27,0,0,1,.34.15c.38.67.8,1.31,1.19,2a.47.47,0,0,0,.47.27h16a1.06,1.06,0,0,0,.73-.29.37.37,0,0,0,.08-.18,1.51,1.51,0,0,0,0-.3V347a.61.61,0,0,0-.34-.62,6,6,0,0,0-2.6-.74c-.42,0-.85,0-1.27,0H406.08l0-.06.18-.12H513.12v51.45H280.17V345.39ZM451.14,372l-4.41-3.3v1.56l-.56,0c1.07.58,2.15,1.11,3.22,1.63a.77.77,0,0,0,.26.07ZM341,370.38v-.07h-2.39a.91.91,0,0,0-.46.16c-1.11.81-2.21,1.65-3.32,2.46a.45.45,0,0,0-.17.59Zm101.74,5.45a.53.53,0,0,0-.29-.71c-1.24-.7-2.46-1.43-3.69-2.15l-.23-.09c0,.38,0,.72,0,1.06a.34.34,0,0,0,.28.39c.82.28,1.65.58,2.47.89C441.71,375.41,442.2,375.62,442.69,375.83ZM347,367.36l-.46.09-3.38.67c-.14,0-.32,0-.31.25s0,.7,0,1.09a21.51,21.51,0,0,1,2-1A19.71,19.71,0,0,1,347,368Zm-2.8,17.14H347v-2.28ZM454,374.25l.06-.08-.66-.45-.08.13Z"/><path class="cls-3" d="M487.64,377.66v-.37c0-2.25,0-4.5,0-6.74,0-.32-.09-.39-.39-.39-2,0-4,0-6,0h-.48v-5.32l.36,0,15.56,0,9.33,0c.28,0,.36.09.36.36V377.3c0,.37,0,.37-.43.37H487.64Z"/><path class="cls-3" d="M299.46,377.59h-4.95c-.29,0-.37-.08-.37-.37q0-2.42,0-4.83c0-.3.1-.37.38-.37h10c.26,0,.33.09.33.34,0,1.63,0,3.27,0,4.91,0,.27-.1.32-.34.32Z"/><path class="cls-3" d="M337.49,349.77h4.95c.28,0,.38.08.37.36,0,1.62,0,3.24,0,4.86,0,.29-.11.36-.38.36q-5,0-10,0c-.26,0-.33-.08-.32-.33,0-1.63,0-3.26,0-4.89,0-.28.08-.36.36-.36Z"/><path class="cls-3" d="M352.32,349.77h5c.25,0,.35.05.35.33q0,2.43,0,4.86c0,.28-.07.39-.38.39q-5,0-9.93,0c-.28,0-.37-.08-.37-.36q0-2.44,0-4.89c0-.25.08-.33.33-.33Z"/><path class="cls-3" d="M367.19,355.34c-1.67,0-3.35,0-5,0-.27,0-.35-.1-.35-.35q0-2.44,0-4.89c0-.24.08-.34.34-.34h10c.23,0,.32.06.32.31,0,1.65,0,3.3,0,4.94,0,.26-.08.33-.33.33Z"/><path class="cls-3" d="M477.74,357.05h5c.26,0,.35.07.35.34q0,2.44,0,4.89c0,.25-.09.33-.33.33H472.74c-.26,0-.35-.07-.34-.34q0-2.43,0-4.86c0-.28.07-.36.35-.36Z"/><path class="cls-3" d="M317.26,349.79H327.9v5.53H317.26Z"/><path class="cls-3" d="M408.79,372.05v5.51H398.18v-5.51Z"/><path class="cls-3" d="M402.21,349.8v5.52H391.6V349.8Z"/><path class="cls-3" d="M492.65,357.05h5c.26,0,.34.07.34.34q0,2.42,0,4.83c0,.3-.09.39-.4.39H487.7c-.3,0-.4-.07-.4-.39,0-1.61,0-3.21,0-4.82,0-.3.1-.35.36-.35Z"/><path class="cls-3" d="M299.47,357.05h5c.28,0,.37.07.37.36,0,1.61,0,3.22,0,4.82,0,.31-.11.38-.39.38h-9.91c-.28,0-.38-.06-.38-.37,0-1.62,0-3.23,0-4.85,0-.28.09-.34.35-.34Z"/><path class="cls-3" d="M314.33,357.05h5c.27,0,.34.09.34.35,0,1.62,0,3.23,0,4.85,0,.29-.1.36-.37.36h-9.94c-.3,0-.37-.09-.37-.38q0-2.42,0-4.83c0-.28.09-.35.36-.35Z"/><path class="cls-3" d="M329.25,357.05h4.95c.29,0,.36.09.36.36q0,2.43,0,4.86c0,.27-.09.34-.35.34h-10c-.25,0-.34-.08-.33-.33q0-2.44,0-4.89c0-.27.09-.34.35-.34Z"/><path class="cls-3" d="M344.08,362.61h-5c-.28,0-.38-.1-.38-.36q0-2.46,0-4.92c0-.21.09-.28.29-.28h10.12c.22,0,.27.09.27.29q0,2.48,0,5c0,.26-.09.32-.34.32Z"/><path class="cls-3" d="M298.14,355.33H287.6V349.8h10.54Z"/><path class="cls-3" d="M302.44,349.79h10.22c.25,0,.35.05.35.33q0,2.46,0,4.92c0,.24-.05.33-.32.33h-10l-.22,0Z"/><path class="cls-3" d="M376.76,355.34v-5.57h10.18c.39,0,.39,0,.39.4,0,1.6,0,3.2,0,4.8,0,.28-.07.38-.37.38H376.76Z"/><path class="cls-3" d="M417,355.32H406.49V349.8H417Z"/><path class="cls-3" d="M421.34,349.79h10.54v5.53H421.34Z"/><path class="cls-3" d="M506.13,349.81v5.53H495.89c-.25,0-.34-.06-.33-.32,0-1.73,0-3.46,0-5.22Z"/><path class="cls-3" d="M480.75,349.8h10.53v5.52H480.75Z"/><path class="cls-3" d="M465.85,349.79h10.54v5.53H465.85Z"/><path class="cls-3" d="M451,355.32V349.8h10.54v5.52Z"/><path class="cls-3" d="M393.89,377.57H383.34V372h10.55Z"/><path class="cls-3" d="M446.73,349.8v5.51H436.17V349.8Z"/><path class="cls-3" d="M408.77,362.59H398.18v-5.51h10.59Z"/><path class="cls-3" d="M402.23,370.29H391.6v-5.52l.36,0h9.9c.3,0,.38.08.37.37,0,1.61,0,3.22,0,4.83Z"/><path class="cls-3" d="M402.22,379.73v5.49H391.6v-5.49Z"/><path class="cls-3" d="M468.15,357.07v5.52H458c-.42,0-.42,0-.42-.42,0-1.6,0-3.21,0-4.82,0-.23.05-.32.3-.32H468Z"/><path class="cls-3" d="M506.15,379.72v5.51H495.58c0-.1,0-.2,0-.29V380c0-.19,0-.32.26-.32H506Z"/><path class="cls-3" d="M376.75,385.23v-5.52H387c.22,0,.32,0,.32.3,0,1.65,0,3.29,0,4.94,0,.2,0,.31-.27.31h-10.2Z"/><path class="cls-3" d="M423.62,357.08v5.51H413.44c-.39,0-.39,0-.39-.41v-5.12Z"/><path class="cls-3" d="M406.47,370.28V370c0-1.62,0-3.24,0-4.86,0-.28.07-.35.35-.35h9.91l.31,0v5.51Z"/><path class="cls-3" d="M427.91,357.07h10.54v5.51H427.91Z"/><path class="cls-3" d="M453.3,357.07c0,.13,0,.23,0,.33,0,1.62,0,3.24,0,4.86,0,.28-.08.35-.36.35h-9.87c-.27,0-.37-.06-.37-.35,0-1.62,0-3.24,0-4.86,0-.25,0-.35.33-.35H453.3Z"/><path class="cls-3" d="M364.21,362.61H354c-.39,0-.39,0-.39-.4v-5.14h10.25c.27,0,.35.07.34.34,0,1.63,0,3.26,0,4.89C364.23,362.37,364.22,362.46,364.21,362.61Z"/><path class="cls-3" d="M368.5,357.07H379v5.51H368.5Z"/><path class="cls-3" d="M393.89,357.08v5.5H383.34v-5.5Z"/><path class="cls-3" d="M287.59,385.23v-5.51h10.55v5.51Z"/><path class="cls-3" d="M298.15,364.77v5.51H287.6c0-.1,0-.19,0-.27,0-1.65,0-3.3,0-4.95,0-.24.07-.31.31-.31h10Z"/><path class="cls-3" d="M307.7,370.31h-5c-.27,0-.34-.08-.33-.34,0-1.63,0-3.26,0-4.89,0-.28.1-.33.35-.33h9.91c.29,0,.35.09.35.36,0,1.62,0,3.24,0,4.85,0,.29-.09.35-.36.35Z"/><path class="cls-3" d="M417.05,379.73v5.5H406.5v-5.5Z"/><path class="cls-3" d="M376.75,370.29c0-.13,0-.23,0-.32,0-1.62,0-3.24,0-4.86,0-.27.06-.37.35-.36H387c.25,0,.35.05.35.33,0,1.64,0,3.28,0,4.92,0,.2,0,.31-.27.31H376.75Z"/><path d="M451.14,372h-1.49a.77.77,0,0,1-.26-.07c-1.07-.52-2.15-1-3.22-1.63l.56,0v-1.56Z"/><path d="M341,370.38l-6.35,3.14a.45.45,0,0,1,.17-.59c1.11-.81,2.21-1.65,3.32-2.46a.91.91,0,0,1,.46-.16h2.39Z"/><path d="M442.69,375.83c-.49-.21-1-.42-1.47-.61-.82-.31-1.65-.61-2.47-.89a.34.34,0,0,1-.28-.39c0-.34,0-.68,0-1.06l.23.09c1.23.72,2.45,1.45,3.69,2.15A.53.53,0,0,1,442.69,375.83Z"/><path d="M347,367.36V368a19.71,19.71,0,0,0-2.15.5,21.51,21.51,0,0,0-2,1c0-.39,0-.74,0-1.09s.17-.22.31-.25l3.38-.67Z"/><path d="M344.16,384.5l2.8-2.28v2.28Z"/><path d="M454,374.25l-.68-.4.08-.13.66.45Z"/></g></svg>