<?xml version="1.0" standalone="no"?>
<!DOCTYPE svg PUBLIC "-//W3C//DTD SVG 20010904//EN"
 "http://www.w3.org/TR/2001/REC-SVG-20010904/DTD/svg10.dtd">
<svg version="1.0" xmlns="http://www.w3.org/2000/svg"
 width="1140.000000pt" height="1140.000000pt" viewBox="0 0 1140.000000 1140.000000"
 preserveAspectRatio="xMidYMid meet">
<metadata>
Created by potrace 1.14, written by Peter Selinger 2001-2017
</metadata>
<g transform="translate(0.000000,1140.000000) scale(0.100000,-0.100000)"
fill="#000000" stroke="none">
<path d="M3979 10076 c-2 -2 -53 -7 -114 -10 -166 -10 -243 -18 -380 -37 -38
-5 -90 -12 -115 -15 -25 -3 -53 -7 -63 -10 -10 -3 -30 -7 -45 -9 -26 -4 -63
-10 -112 -20 -13 -2 -42 -7 -63 -10 -22 -4 -50 -10 -63 -15 -13 -5 -24 -7 -24
-4 0 4 -6 1 -13 -5 -8 -6 -16 -9 -19 -6 -2 3 -20 0 -39 -6 -19 -5 -45 -12 -59
-15 -14 -3 -88 -23 -165 -45 -77 -23 -144 -42 -150 -43 -10 -3 -23 -8 -62 -23
-10 -3 -20 -7 -23 -8 -54 -13 -300 -111 -405 -161 -44 -21 -82 -38 -85 -39
-16 -4 -163 -82 -275 -145 -198 -112 -479 -320 -654 -485 -109 -102 -244 -245
-289 -305 -15 -19 -37 -46 -50 -60 -12 -14 -35 -43 -50 -65 -15 -22 -30 -42
-34 -45 -10 -8 -111 -159 -152 -230 -21 -36 -46 -76 -55 -90 -8 -14 -16 -27
-16 -30 -1 -3 -9 -21 -20 -40 -10 -19 -30 -57 -43 -85 -13 -27 -28 -57 -33
-65 -5 -8 -12 -22 -15 -30 -47 -118 -59 -146 -66 -154 -4 -6 -8 -16 -8 -22 0
-7 -5 -25 -12 -41 -6 -15 -12 -30 -13 -33 -1 -3 -4 -12 -8 -20 -15 -40 -79
-265 -92 -325 -28 -126 -32 -151 -50 -278 -3 -23 -8 -53 -10 -67 -21 -138 -27
-545 -12 -726 8 -83 13 -129 17 -129 0 0 3 -20 5 -45 4 -53 7 -72 41 -245 36
-182 125 -494 173 -610 5 -11 26 -63 46 -115 21 -52 51 -121 66 -152 15 -32
25 -58 22 -58 -2 0 4 -12 15 -27 11 -16 23 -39 27 -52 4 -13 21 -47 37 -75 17
-28 30 -53 29 -56 -1 -3 8 -21 19 -40 30 -50 131 -221 144 -245 14 -25 166
-254 183 -275 7 -8 49 -64 94 -125 45 -60 87 -115 93 -121 6 -6 22 -25 36 -43
14 -18 34 -42 45 -55 11 -12 35 -39 53 -60 19 -21 37 -35 41 -30 4 5 36 54 71
109 35 55 66 102 69 105 3 3 22 25 41 50 40 52 123 131 211 202 34 27 68 55
76 63 8 8 18 15 23 15 5 0 15 6 22 13 7 7 32 24 56 38 l42 26 -21 24 c-11 13
-32 38 -47 54 -126 142 -174 198 -215 250 -26 33 -53 67 -60 75 -8 8 -25 31
-38 50 -13 19 -27 37 -30 40 -14 13 -119 192 -149 255 -37 79 -110 252 -115
275 -2 8 -8 27 -14 43 -25 62 -29 72 -29 77 0 3 -7 23 -16 45 -27 62 -67 177
-72 205 -3 14 -8 34 -11 45 -9 26 -12 41 -28 135 -3 19 -10 58 -15 85 -10 57
-20 116 -26 160 -2 17 -5 44 -8 60 -6 36 -23 155 -31 208 -3 20 -8 54 -11 75
-3 20 -7 55 -9 77 -2 22 -6 60 -10 85 -3 25 -8 63 -11 85 -5 41 -5 434 1 515
4 64 16 190 21 214 2 11 6 36 9 56 12 79 41 193 60 235 7 17 19 49 26 73 7 23
17 42 22 42 6 0 8 3 4 6 -3 3 8 31 24 62 16 31 29 62 29 69 0 7 3 13 8 13 4 0
22 28 40 63 18 34 47 85 64 112 17 28 61 97 96 155 83 135 116 177 219 277 83
82 258 218 363 283 30 19 57 37 60 40 5 5 22 15 88 51 20 11 53 30 72 41 65
39 325 168 338 168 6 0 12 5 12 12 0 6 2 9 6 6 3 -3 32 7 64 23 32 16 71 31
85 35 14 3 28 10 31 15 3 5 14 9 25 9 10 0 19 4 19 8 0 5 6 9 13 9 7 0 74 30
150 66 75 37 139 67 143 67 3 0 20 7 37 15 116 53 492 181 622 210 6 1 17 5
26 9 9 4 27 8 41 10 13 1 29 6 36 10 7 4 12 5 12 2 0 -3 21 1 48 9 42 12 81
20 147 30 11 2 20 4 20 5 0 1 11 4 25 6 40 5 102 14 140 18 211 28 1100 28
1345 1 17 -2 61 -6 100 -9 38 -4 83 -9 100 -12 16 -3 48 -7 70 -9 44 -4 68 -8
195 -31 47 -9 97 -17 112 -19 15 -2 46 -9 70 -15 24 -7 52 -14 63 -17 44 -9
61 -13 83 -17 12 -3 26 -7 30 -10 5 -3 24 -8 42 -11 29 -5 136 -36 270 -78 19
-6 37 -11 40 -12 25 -5 805 -262 835 -275 11 -5 49 -18 85 -30 36 -11 74 -25
85 -29 11 -5 54 -22 95 -37 41 -15 91 -34 110 -42 19 -9 40 -16 46 -18 5 -1
68 -27 139 -58 71 -30 130 -54 133 -52 2 2 -9 10 -25 18 -54 29 -148 81 -173
98 -14 9 -92 50 -175 91 -82 40 -151 77 -153 82 -2 4 -7 7 -12 7 -5 0 -57 23
-117 50 -59 28 -117 55 -128 60 -176 81 -527 217 -750 290 -88 28 -167 54
-175 57 -19 8 -18 7 -60 17 -19 5 -39 11 -45 14 -5 4 -14 7 -20 8 -28 5 -204
54 -230 64 -16 6 -31 11 -33 10 -1 -1 -21 2 -45 6 -47 9 -46 9 -67 17 -8 3
-26 7 -40 10 -14 2 -81 16 -150 31 -69 14 -136 27 -150 30 -14 2 -65 12 -115
22 -49 9 -100 16 -112 16 -13 -1 -23 2 -23 6 0 4 -13 7 -29 6 -17 0 -67 5
-113 13 -87 14 -137 19 -358 38 -36 4 -85 8 -110 11 -53 6 -756 15 -761 10z"/>
<path d="M3025 8522 c-2 -2 -23 -6 -47 -8 -160 -15 -399 -76 -547 -141 -86
-37 -182 -86 -187 -95 -3 -5 -10 -6 -15 -3 -5 4 -9 1 -9 -4 0 -6 -6 -11 -13
-11 -8 0 -22 -9 -32 -20 -10 -11 -22 -20 -27 -20 -14 0 -78 -47 -177 -131
-223 -189 -368 -438 -415 -714 -13 -79 -13 -271 0 -330 4 -16 8 -39 9 -50 2
-11 4 -20 5 -20 1 0 3 -9 5 -19 20 -104 142 -352 208 -421 7 -7 28 -32 47 -55
33 -41 73 -80 157 -157 128 -115 449 -289 595 -322 4 -1 26 -8 49 -16 23 -9
51 -17 63 -20 12 -2 32 -7 46 -10 14 -3 38 -8 54 -11 16 -2 32 -6 35 -8 9 -5
98 -18 151 -22 25 -1 45 -3 45 -5 0 -3 101 -7 200 -8 114 0 205 4 261 14 22 4
55 8 74 10 65 6 290 64 360 92 20 8 20 8 55 18 17 4 32 11 35 14 3 4 25 14 49
24 193 74 481 293 606 462 17 22 32 42 35 45 13 12 69 111 102 180 35 73 74
185 83 239 2 14 7 42 11 61 10 53 11 228 2 290 -12 76 -37 176 -58 231 -37 93
-74 169 -82 169 -4 0 -8 5 -8 11 0 12 -71 119 -109 164 -58 68 -181 183 -251
236 -121 90 -378 229 -424 229 -8 0 -16 3 -18 8 -2 5 -95 40 -128 47 -3 1 -48
11 -100 24 -131 32 -172 38 -280 47 -25 1 -47 4 -50 5 -9 4 -361 4 -365 1z"/>
<path d="M10205 7440 c-11 -4 -25 -5 -32 -3 -8 3 -11 -23 -12 -94 0 -54 0
-105 0 -113 -1 -14 -232 -16 -2178 -16 -1198 0 -2206 -4 -2240 -7 -35 -4 -93
-17 -130 -29 -38 -12 -70 -22 -73 -23 -43 -13 -163 -91 -210 -136 -109 -104
-149 -213 -150 -409 -1 -33 -1 -241 -1 -260 0 -8 0 -80 0 -160 0 -80 0 -152 0
-160 1 -8 1 -62 0 -120 0 -58 0 -112 0 -120 1 -8 1 -62 0 -120 0 -58 0 -112 0
-120 1 -8 1 -62 0 -120 0 -123 0 -114 3 -210 2 -47 7 -74 14 -73 6 1 28 4 50
7 21 2 53 10 69 16 17 6 30 11 30 10 0 -5 87 32 152 66 160 83 158 75 151 574
-1 52 3 122 9 155 10 55 10 135 -1 594 -3 132 6 196 30 221 10 10 37 15 87 16
40 1 252 4 472 8 631 11 952 16 1503 20 283 3 516 7 519 10 3 3 14 1 24 -4 12
-7 20 -7 24 0 4 6 11 8 16 4 9 -5 80 -8 104 -4 26 4 104 2 113 -4 6 -3 13 -3
16 2 5 8 46 9 62 1 8 -5 31 -4 37 1 5 4 107 5 107 0 0 -3 11 -5 25 -5 14 0 25
3 25 6 0 4 18 3 40 -1 22 -4 42 -5 45 -2 9 9 115 8 115 -1 0 -4 9 -3 20 3 14
8 20 8 20 0 0 -6 4 -9 8 -6 8 5 90 8 125 4 13 -1 17 -10 17 -38 l0 -37 -1654
-1 c-910 0 -1670 -3 -1688 -7 -44 -10 -96 -46 -118 -82 -16 -27 -17 -67 -18
-456 0 -235 4 -427 8 -427 4 0 14 15 21 32 30 74 323 334 452 403 44 23 318
119 368 129 13 2 31 7 39 10 8 3 26 8 40 10 14 3 50 9 80 15 30 6 73 13 95 16
45 6 254 6 300 1 17 -2 55 -6 86 -10 51 -5 120 -17 174 -30 88 -21 362 -114
430 -146 70 -34 175 -99 175 -108 0 -4 -33 -20 -73 -36 -105 -42 -135 -55
-202 -87 -33 -16 -64 -29 -69 -29 -4 0 -22 -6 -39 -14 -90 -41 -146 -64 -179
-77 -21 -7 -38 -16 -38 -19 0 -4 -6 -7 -12 -7 -13 0 -168 -73 -178 -83 -3 -3
-23 -14 -44 -25 -22 -11 -65 -45 -95 -75 -93 -92 -137 -199 -110 -265 7 -17
12 -33 11 -37 -7 -30 150 -127 228 -143 19 -3 49 -9 65 -13 17 -3 71 -5 120
-5 93 0 114 6 255 69 280 127 436 200 441 207 3 5 9 8 13 8 6 -1 32 10 181 80
33 15 73 31 88 35 l29 7 -3 -189 c-1 -104 -5 -193 -9 -199 -4 -5 -11 -32 -15
-59 -11 -78 -43 -179 -88 -276 -25 -55 -69 -110 -160 -200 -144 -144 -155
-153 -247 -206 -47 -26 -110 -64 -140 -84 -30 -21 -76 -47 -103 -59 -26 -13
-45 -26 -43 -30 3 -4 593 -6 1313 -6 973 1 1315 5 1336 13 16 7 30 12 33 12
10 0 57 47 69 70 10 19 13 122 13 445 1 231 1 437 1 458 l1 37 53 0 54 0 -3
-77 c-1 -43 -5 -152 -9 -243 -4 -91 -6 -171 -6 -177 2 -27 2 -9 -14 -358 -3
-66 -7 -133 -8 -149 -2 -31 -36 -63 -75 -71 -12 -2 -27 -7 -32 -10 -11 -7 -26
-10 -86 -19 -22 -4 -52 -9 -69 -12 -16 -3 -64 -7 -105 -9 -41 -2 -75 -5 -75
-5 0 -5 -244 -9 -470 -9 -827 0 -1405 5 -1405 12 0 5 -5 5 -12 1 -16 -10 -179
-11 -185 -1 -2 4 -9 4 -16 0 -14 -9 -97 -10 -97 -1 0 4 -13 3 -30 -2 -16 -5
-30 -5 -30 -1 0 4 -20 5 -45 1 -25 -4 -48 -3 -50 1 -3 4 -19 4 -35 -1 -17 -5
-30 -6 -30 -2 0 9 -115 7 -128 -2 -6 -4 -13 -3 -16 2 -5 9 -81 6 -98 -4 -6 -4
-9 -3 -6 2 4 5 -277 8 -690 8 -714 -2 -719 -2 -854 -39 -10 -3 -26 -7 -36 -9
-56 -13 -238 -70 -246 -77 -6 -5 -16 -9 -24 -9 -21 0 -112 -41 -112 -51 0 -5
5 -9 10 -9 6 0 20 -8 31 -19 26 -24 152 -86 214 -105 45 -14 101 -24 175 -31
14 -2 429 -3 923 -4 l898 -1 -3 -151 -3 -152 -25 -2 c-14 -2 -79 -6 -145 -10
-173 -10 -241 -14 -320 -19 -38 -2 -126 -7 -195 -11 -69 -4 -138 -13 -155 -20
-65 -29 -221 -93 -243 -100 -42 -12 -13 -19 128 -30 30 -2 77 -6 105 -9 27 -3
82 -8 120 -11 39 -3 90 -8 115 -11 25 -2 77 -7 115 -10 39 -2 88 -6 110 -8 22
-2 78 -7 125 -11 47 -4 101 -9 120 -11 147 -15 236 -18 540 -19 307 0 385 3
520 20 64 8 195 23 264 30 21 3 56 7 77 10 22 3 56 7 78 10 21 3 58 8 82 10
55 6 135 15 174 20 17 2 50 6 75 9 25 2 65 7 90 11 25 3 68 7 95 10 28 2 52 5
55 6 14 4 29 6 64 7 41 2 44 10 6 17 -25 5 -202 45 -270 62 -26 6 -138 12
-335 18 -421 12 -509 16 -513 20 -3 2 -7 76 -9 165 l-5 160 924 1 c508 0 932
2 943 3 286 37 512 200 570 411 6 24 16 143 16 190 -1 19 -1 220 -1 235 0 8 0
62 0 120 0 58 0 113 0 123 0 9 0 28 0 42 0 14 0 31 0 38 1 6 0 59 0 117 0 58
0 112 0 120 0 8 0 62 0 120 0 58 0 112 0 120 0 8 0 62 0 120 0 58 0 112 0 120
0 8 0 62 0 120 0 58 0 112 0 120 0 8 0 62 0 120 0 58 0 113 0 123 0 9 0 28 0
42 0 14 0 31 0 38 0 6 0 64 -1 128 -1 64 1 122 5 128 4 6 3 11 -2 11 -5 0 -7
13 -4 29 l4 29 231 0 c128 0 240 1 250 1 16 1 17 21 17 281 l0 280 -22 1 c-31
0 -441 0 -500 0 l-46 -1 0 -97 c0 -54 -1 -111 -1 -128 l-1 -30 -28 35 c-15 19
-45 52 -67 72 l-41 38 2 167 c1 183 -2 218 -20 206 -6 -5 -24 -7 -41 -6 -16 2
-43 3 -60 2 -16 0 -36 0 -42 0 -7 1 -19 1 -25 1 -7 1 -44 0 -83 0 -38 -1 -74
0 -80 1 -25 4 -42 4 -72 -2 -17 -4 -35 -3 -40 1 -4 4 -17 4 -28 0z m-438 -609
c8 -1 12 -15 11 -35 l-1 -35 -64 1 c-63 1 -65 3 -65 43 0 8 0 19 1 23 1 7 42
8 118 3z m701 -608 l-3 -67 -55 0 c-50 -1 -55 1 -60 23 -3 14 -3 44 -1 68 l3
43 59 0 60 0 -3 -67z m-3 -568 c0 -66 -3 -156 -6 -200 -4 -60 -6 -39 -7 88
l-2 167 -48 0 c-27 0 -51 2 -54 5 -2 3 -3 18 0 34 4 28 5 28 60 27 l57 -1 0
-120z m-8 -307 c-3 -8 -6 -5 -6 6 -1 11 2 17 5 13 3 -3 4 -12 1 -19z"/>
<path d="M6856 6223 c-2 -3 -45 -10 -101 -17 -155 -21 -352 -96 -412 -157 -16
-16 -31 -29 -35 -29 -7 0 -115 -107 -162 -161 -116 -131 -204 -299 -222 -422
-8 -56 -8 -56 -1 -103 l6 -41 -52 -23 c-29 -13 -104 -48 -167 -78 -119 -56
-201 -94 -210 -97 -18 -6 -68 -29 -329 -151 -51 -24 -97 -44 -102 -44 -5 0 -9
-4 -9 -8 0 -5 -6 -9 -12 -9 -7 0 -51 -19 -98 -41 -145 -68 -221 -102 -231
-102 -5 0 -9 -4 -9 -10 0 -5 -6 -10 -14 -10 -8 0 -40 -13 -72 -29 -91 -44
-152 -71 -163 -71 -6 0 -11 -5 -11 -10 0 -6 -3 -9 -7 -8 -5 1 -30 -9 -58 -21
-27 -13 -84 -39 -125 -58 -41 -19 -102 -48 -135 -63 -33 -15 -112 -52 -175
-80 -63 -29 -153 -70 -200 -92 -47 -22 -107 -50 -135 -63 -64 -29 -165 -75
-283 -131 -52 -24 -99 -44 -106 -44 -7 0 -53 14 -102 31 -49 17 -96 33 -104
35 -8 2 -62 15 -120 29 -58 15 -121 28 -140 30 -19 2 -35 5 -35 5 0 1 -11 3
-25 4 -14 0 -29 3 -35 6 -5 3 -43 5 -82 5 -40 0 -73 2 -73 5 0 6 -112 2 -118
-5 -3 -3 -11 0 -19 6 -7 6 -13 8 -13 3 0 -5 -21 -10 -48 -12 -44 -2 -87 -8
-87 -12 0 -1 -9 -3 -20 -5 -40 -5 -75 -14 -85 -20 -5 -3 -18 -8 -29 -10 -10
-2 -38 -13 -62 -24 -23 -12 -49 -21 -56 -21 -7 0 -13 -3 -13 -8 0 -4 -15 -14
-33 -21 -84 -38 -234 -150 -300 -228 -18 -20 -39 -44 -47 -52 -28 -31 -135
-215 -133 -231 0 -3 -3 -14 -7 -25 -4 -11 -10 -37 -14 -57 l-7 -37 38 13 c44
15 241 91 293 112 70 28 95 37 110 40 8 2 23 7 35 13 11 5 52 21 90 36 39 14
86 32 105 40 91 35 106 39 120 37 16 -3 299 -105 365 -132 11 -4 47 -18 80
-30 33 -12 68 -26 77 -31 10 -5 24 -9 31 -9 7 0 21 -6 31 -13 17 -12 18 -32
18 -238 -1 -123 -1 -238 -1 -255 -1 -27 -8 -34 -58 -60 -177 -91 -321 -169
-345 -186 -16 -11 -28 -16 -28 -12 0 3 -6 2 -12 -4 -13 -10 -101 -58 -263
-143 -49 -26 -91 -52 -93 -57 -3 -9 20 -21 53 -28 6 -1 26 -9 45 -17 19 -8 38
-16 42 -16 4 -1 26 -8 48 -16 45 -16 170 -43 240 -52 60 -8 245 -7 295 1 22 4
49 8 60 10 11 2 20 4 20 5 0 2 7 4 48 14 6 2 23 9 37 17 14 8 28 14 31 15 7 0
142 68 149 75 3 3 25 16 50 29 136 74 313 216 368 297 12 17 33 69 47 115 15
46 29 91 32 99 3 8 7 24 8 35 1 11 5 30 9 42 9 29 12 47 21 118 3 33 10 64 15
70 5 5 9 13 9 18 2 21 34 68 67 97 42 36 92 60 142 67 19 3 59 16 90 30 32 13
72 31 90 39 17 8 49 22 70 31 20 10 39 18 42 18 3 1 28 12 55 24 129 60 176
81 184 81 5 0 41 16 80 35 39 19 73 35 75 35 3 0 36 14 73 31 66 30 96 43 158
69 17 7 37 16 45 21 8 5 22 12 30 15 51 19 96 39 100 44 3 3 11 6 19 8 8 2 32
12 54 23 23 10 47 19 54 19 7 0 13 5 13 10 0 6 7 10 15 10 8 0 23 4 33 9 29
16 172 81 178 81 3 0 29 11 57 24 177 80 284 126 296 126 6 0 11 5 11 10 0 6
7 10 15 10 8 0 74 27 147 61 73 33 138 62 143 63 6 1 35 14 65 28 30 14 78 34
105 44 28 9 56 22 63 27 6 5 12 7 12 4 0 -3 21 0 48 7 45 11 107 12 180 3 18
-3 61 -18 95 -34 69 -33 145 -52 307 -78 204 -32 526 -19 595 23 6 4 16 7 23
8 44 7 290 151 370 218 49 40 158 151 187 191 17 22 32 42 35 45 24 21 110
189 110 214 0 30 -23 65 -49 74 -57 19 -125 -3 -281 -87 -52 -29 -115 -62
-140 -74 -25 -12 -47 -25 -50 -28 -3 -4 -39 -23 -80 -44 -41 -21 -78 -42 -81
-47 -9 -13 -50 -13 -124 1 -33 7 -71 14 -85 16 -14 2 -49 9 -79 14 -29 6 -57
8 -62 5 -5 -3 -9 -1 -9 3 0 5 -12 10 -27 11 -69 5 -131 35 -243 115 -56 40
-180 163 -180 178 0 4 -6 14 -13 21 -6 7 -22 33 -33 58 -46 97 -46 93 -10 162
99 188 102 192 147 215 80 39 144 66 157 66 6 0 12 3 12 7 0 3 17 12 38 19 20
8 55 22 77 32 141 63 179 79 191 79 8 0 14 5 14 10 0 6 3 9 8 8 4 -1 25 6 47
16 47 21 130 57 199 86 46 19 53 30 23 36 -25 5 -54 13 -127 33 -71 19 -168
37 -255 47 -45 5 -295 11 -299 7z"/>
<path d="M2089 6082 c-8 -3 -16 -8 -19 -11 -5 -6 -55 -46 -141 -111 -78 -59
-90 -75 -104 -132 -11 -50 -11 -61 4 -89 19 -38 55 -67 91 -73 14 -3 27 -5 30
-6 3 -2 9 -2 13 -1 8 1 109 -73 157 -116 14 -13 27 -23 31 -23 10 0 72 -60 91
-87 10 -16 18 -43 18 -61 0 -35 -22 -95 -42 -116 -7 -7 -31 -35 -53 -62 -22
-26 -52 -62 -67 -79 -91 -103 -109 -135 -77 -135 6 0 79 -33 162 -74 374 -182
432 -210 437 -211 3 0 16 -7 30 -15 14 -8 27 -15 30 -15 5 -1 49 -22 335 -161
66 -32 123 -59 127 -59 4 0 13 -6 19 -12 7 -7 17 -13 22 -13 5 0 52 -21 103
-46 52 -26 97 -45 99 -42 3 2 -4 14 -15 26 -12 12 -18 22 -15 22 4 0 -1 7 -9
16 -9 8 -30 36 -48 62 -18 26 -38 53 -45 62 -7 8 -35 47 -63 85 -28 39 -57 79
-66 90 -8 11 -50 67 -92 125 -42 58 -79 107 -84 108 -4 2 -8 8 -8 13 0 8 -54
83 -93 129 -6 8 -16 22 -22 31 -12 22 -157 222 -165 229 -3 3 -17 21 -30 40
-14 19 -30 42 -37 50 -7 8 -41 54 -75 102 -361 497 -413 565 -429 560z"/>
<path d="M4254 5942 c-31 -64 -57 -122 -58 -128 -1 -7 -8 -20 -16 -30 -8 -9
-13 -18 -11 -18 2 -1 -10 -30 -27 -66 -16 -36 -53 -117 -82 -180 -29 -63 -57
-121 -62 -127 -6 -7 -8 -13 -5 -13 4 0 -6 -24 -21 -52 -14 -29 -27 -55 -27
-58 -1 -3 -12 -27 -24 -55 -13 -27 -37 -79 -53 -114 -37 -82 -94 -205 -118
-256 -10 -22 -31 -67 -45 -100 -15 -33 -47 -102 -71 -154 -24 -51 -44 -95 -44
-97 0 -2 -13 -32 -30 -66 -16 -34 -28 -63 -26 -65 3 -3 56 32 206 137 66 46
297 207 372 259 534 369 491 338 560 406 58 58 81 98 80 138 -1 35 -37 66 -72
61 -57 -10 -147 -10 -179 0 -38 11 -59 49 -40 72 6 8 9 14 5 14 -6 0 22 31
176 191 35 36 75 73 90 82 35 21 51 52 44 81 -6 26 -70 99 -88 102 -7 1 -73
28 -146 58 -73 31 -155 65 -182 76 l-50 20 -56 -118z"/>
<path d="M3414 5797 c-17 -12 -49 -36 -70 -53 -21 -18 -97 -78 -168 -134
l-128 -102 68 -32 c38 -17 76 -36 84 -41 8 -5 17 -10 20 -10 3 0 31 -13 62
-30 48 -25 59 -36 71 -70 17 -53 12 -193 -9 -226 -3 -5 -8 -22 -10 -36 -3 -15
-27 -72 -55 -127 -27 -55 -49 -103 -49 -106 0 -14 161 -245 170 -245 6 0 53
65 105 145 52 80 104 156 115 170 11 14 20 31 20 38 0 6 5 12 10 12 6 0 10 7
10 15 0 8 4 15 10 15 5 0 9 3 8 8 -1 4 8 28 20 54 47 105 34 213 -33 278 l-34
33 57 44 c31 25 70 56 86 69 17 13 33 24 37 24 4 0 9 6 12 14 4 9 -30 41 -96
92 -56 43 -104 80 -107 83 -3 4 -25 22 -50 41 -25 19 -46 38 -48 42 -2 4 -9 8
-15 8 -6 0 -22 11 -36 24 l-26 24 -31 -21z"/>
<path d="M10920 3608 c-197 -389 -347 -577 -620 -779 l-35 -26 0 183 c0 175
-1 183 -20 186 -11 2 -1057 3 -2325 2 l-2305 0 0 -514 0 -515 1752 1 c964 1
1750 -2 1748 -6 -4 -7 -56 -20 -82 -21 -5 -1 -12 -4 -18 -9 -5 -4 -26 -11 -45
-15 -19 -4 -39 -10 -45 -13 -5 -4 -14 -7 -20 -8 -5 -1 -44 -12 -85 -24 -41
-12 -82 -24 -90 -25 -8 -2 -15 -4 -15 -5 0 -1 -7 -3 -15 -5 -8 -2 -78 -19
-155 -38 -124 -31 -175 -44 -210 -53 -5 -1 -57 -12 -115 -24 -58 -12 -114 -23
-125 -26 -11 -2 -36 -7 -55 -10 -19 -4 -44 -9 -55 -11 -28 -6 -54 -10 -100
-17 -22 -3 -51 -8 -65 -11 -22 -4 -44 -7 -140 -21 -20 -2 -46 -6 -57 -9 -12
-2 -57 -7 -100 -10 -43 -4 -98 -8 -123 -11 -54 -4 -315 -4 -385 0 -71 5 -184
16 -222 21 -18 3 -48 7 -65 10 -18 2 -69 9 -113 15 -68 10 -220 36 -317 55
-16 3 -40 7 -55 10 -16 3 -68 14 -118 25 -49 11 -99 22 -110 24 -11 3 -60 14
-110 26 -49 12 -94 23 -100 24 -5 1 -19 5 -30 9 -11 3 -31 8 -45 11 -35 7
-228 60 -335 91 -49 15 -99 29 -110 32 -129 32 -848 280 -981 339 -21 9 -43
18 -49 19 -11 3 -170 68 -220 90 -16 8 -70 32 -118 54 -49 23 -91 41 -93 41
-2 0 -49 22 -105 49 l-101 50 -81 -51 c-44 -27 -95 -59 -114 -69 -18 -10 -50
-29 -71 -40 -124 -71 -304 -163 -426 -219 -38 -17 -67 -32 -65 -34 12 -10 248
-136 369 -197 97 -48 309 -149 316 -149 2 0 29 -12 61 -26 32 -14 74 -33 93
-41 19 -8 43 -19 52 -24 10 -5 22 -9 28 -9 6 0 29 -9 53 -19 113 -50 497 -185
657 -231 25 -7 56 -16 70 -20 91 -30 405 -110 485 -124 11 -2 38 -9 60 -14 48
-13 101 -24 135 -28 14 -1 27 -3 30 -5 3 -1 10 -3 15 -4 10 -2 73 -14 110 -22
11 -2 34 -6 50 -8 17 -3 41 -7 55 -10 14 -3 45 -8 70 -11 25 -3 56 -8 70 -10
14 -3 36 -7 50 -8 14 -2 66 -9 115 -15 50 -6 111 -13 138 -16 26 -3 66 -7 90
-10 53 -6 135 -12 279 -22 143 -9 719 -9 858 0 58 4 136 9 174 12 37 2 85 7
105 9 20 3 61 8 91 12 30 3 66 7 80 9 26 3 110 15 145 20 11 2 43 6 70 10 28
4 53 9 56 11 3 1 28 6 55 9 27 4 78 14 114 22 36 9 74 17 85 18 11 2 52 11 90
20 39 9 77 18 85 20 8 2 15 4 15 5 0 1 8 3 18 5 33 6 242 66 262 75 11 5 45
16 75 26 30 9 109 37 175 62 66 25 126 45 133 45 6 0 12 4 12 9 0 4 4 8 9 8 5
0 30 10 57 22 27 12 51 22 54 23 8 1 223 104 240 115 8 5 31 18 50 28 67 35
186 105 269 161 l85 55 234 3 c129 1 240 4 246 6 9 4 12 60 11 201 l-1 197 31
32 c133 138 365 434 365 466 0 6 4 11 8 11 5 0 15 12 23 28 7 15 28 50 45 77
33 55 141 271 146 295 2 8 9 21 16 28 7 8 10 18 7 23 -4 5 -1 9 6 9 7 0 10 3
6 6 -3 3 4 27 15 52 22 52 57 152 52 152 -1 0 -30 -55 -64 -122z"/>
<path d="M2380 3594 c-19 -9 -118 -50 -220 -91 -212 -86 -294 -123 -298 -135
-2 -4 -8 -8 -13 -8 -10 0 -167 -97 -189 -117 -12 -11 -12 -15 -3 -21 14 -9 94
-76 141 -119 17 -16 44 -39 62 -53 17 -14 44 -35 58 -48 15 -13 43 -35 62 -50
19 -15 37 -29 40 -32 3 -3 23 -18 45 -35 22 -16 42 -32 45 -35 8 -9 22 -6 84
23 32 15 61 27 63 27 7 0 124 71 147 90 34 26 171 144 176 150 3 4 31 26 63
49 31 24 57 47 57 50 0 4 -10 17 -22 28 -22 19 -214 218 -272 280 l-28 31 28
16 c37 20 19 20 -26 0z"/>
</g>
</svg>
